<svg width="26" height="25" viewBox="0 0 26 25" fill="none" xmlns="http://www.w3.org/2000/svg">
<path d="M22.2188 2.25C22.6123 2.25694 22.9883 2.41696 23.2666 2.69531C23.5448 2.97359 23.7039 3.34876 23.7109 3.74219C23.7179 4.13575 23.572 4.51669 23.3037 4.80469L23.2949 4.81445L15.1289 12.9805L23.2852 21.1377H23.2842C23.4248 21.2732 23.5386 21.4338 23.6182 21.6123C23.7012 21.7987 23.7464 22.0001 23.75 22.2041C23.7536 22.408 23.716 22.6107 23.6396 22.7998C23.5632 22.989 23.449 23.1604 23.3047 23.3047C23.1604 23.449 22.989 23.5632 22.7998 23.6396C22.6107 23.716 22.408 23.7536 22.2041 23.75C22.0001 23.7464 21.7987 23.7012 21.6123 23.6182C21.4338 23.5386 21.2732 23.4248 21.1377 23.2842V23.2852L12.9805 15.1289L4.81445 23.2949L4.80469 23.3037C4.51669 23.572 4.13575 23.7179 3.74219 23.7109C3.34876 23.7039 2.97359 23.5448 2.69531 23.2666C2.41696 22.9883 2.25694 22.6123 2.25 22.2188C2.24317 21.8253 2.38995 21.4441 2.6582 21.1562L2.66699 21.1475L2.67578 21.1377L10.832 12.9805L2.67578 4.82422L2.6582 4.80469C2.38985 4.51669 2.24306 4.13577 2.25 3.74219C2.257 3.34869 2.41702 2.97361 2.69531 2.69531C2.97361 2.41702 3.34869 2.257 3.74219 2.25C4.13577 2.24306 4.51669 2.38985 4.80469 2.6582L4.82422 2.67578L12.9805 10.832L21.1377 2.67578L21.1475 2.66699L21.1562 2.6582C21.4441 2.38995 21.8253 2.24317 22.2188 2.25Z" fill="#1616E6" stroke="#1616E6" stroke-width="1.5"/>
</svg>
