<svg width="233" height="67" viewBox="0 0 233 67" fill="none" xmlns="http://www.w3.org/2000/svg">
<path d="M2.64 53V19.976H12.624L20.88 36.008L28.944 19.976H38.928V53H28.944V35.72L22.848 47.24H18.768L12.624 35.72V53H2.64ZM39.8501 53L48.9701 19.976H64.5221L74.0741 53H62.3141L61.0661 46.664H52.5221L51.1301 53H39.8501ZM53.5301 40.76H59.9141L56.7941 26.312L53.5301 40.76ZM74.7375 53V19.976H84.3375L97.2975 37.496V19.976H106.13V53H96.5295L83.5695 36.2V53H74.7375ZM109.474 53V19.976H120.946C125.746 19.976 129.65 20.664 132.658 22.04C135.698 23.416 137.922 25.32 139.33 27.752C140.77 30.184 141.49 33.016 141.49 36.248C141.49 41.528 139.746 45.64 136.258 48.584C132.802 51.528 127.538 53 120.466 53H109.474ZM120.082 44.6H123.154C125.714 44.6 127.618 43.832 128.866 42.296C130.114 40.728 130.738 38.68 130.738 36.152C130.738 33.816 130.13 31.944 128.914 30.536C127.73 29.096 125.81 28.376 123.154 28.376H120.082V44.6ZM140.45 53L149.57 19.976H165.122L174.674 53H162.914L161.666 46.664H153.122L151.73 53H140.45ZM154.13 40.76H160.514L157.394 26.312L154.13 40.76ZM154.418 17.816L151.49 12.68L165.554 2.84L170.402 11.432L154.418 17.816ZM178.13 53V27.56H170.69V19.976H196.754V27.56H189.314V53H178.13Z" fill="#1616E6"/>
<path d="M213.173 53.768C209.685 53.768 206.613 53.032 203.957 51.56C201.301 50.088 199.221 48.056 197.717 45.464C196.245 42.872 195.509 39.896 195.509 36.536C195.509 33.144 196.245 30.152 197.717 27.56C199.221 24.968 201.301 22.936 203.957 21.464C206.613 19.992 209.685 19.256 213.173 19.256C216.661 19.256 219.733 19.992 222.389 21.464C225.045 22.904 227.109 24.92 228.581 27.512C230.085 30.104 230.837 33.112 230.837 36.536C230.837 39.896 230.085 42.872 228.581 45.464C227.109 48.056 225.045 50.088 222.389 51.56C219.733 53.032 216.661 53.768 213.173 53.768ZM213.173 45.032C215.189 45.032 216.837 44.248 218.117 42.68C219.429 41.112 220.085 39.048 220.085 36.488C220.085 34.76 219.781 33.24 219.173 31.928C218.597 30.616 217.781 29.592 216.725 28.856C215.701 28.088 214.501 27.704 213.125 27.704C211.109 27.704 209.461 28.52 208.181 30.152C206.901 31.752 206.261 33.864 206.261 36.488C206.261 39.048 206.901 41.112 208.181 42.68C209.461 44.248 211.125 45.032 213.173 45.032ZM210.245 17.816L207.317 12.68L221.381 2.84L226.229 11.432L210.245 17.816Z" fill="#0D0D0E"/>
<path d="M219.61 29.0098C219.905 29.0436 220.183 29.1623 220.412 29.3506L220.522 29.4502L220.622 29.5605C220.811 29.7896 220.929 30.0684 220.963 30.3633L220.973 30.5117L220.969 30.6602C220.941 31.0048 220.798 31.3318 220.561 31.5869L220.548 31.6006L215.162 36.9863L220.536 42.3604H220.535C220.638 42.4603 220.726 42.5734 220.797 42.6973L220.867 42.835L220.923 42.9795C220.955 43.0772 220.977 43.1781 220.989 43.2803L221 43.4346L220.995 43.5889C220.982 43.7427 220.946 43.8944 220.888 44.0381C220.81 44.2295 220.696 44.4038 220.55 44.5498C220.404 44.6958 220.229 44.8103 220.038 44.8877C219.847 44.9651 219.641 45.0036 219.435 45C219.228 44.9964 219.024 44.9513 218.835 44.8672C218.657 44.7878 218.496 44.6746 218.36 44.5352L212.986 39.1621L207.601 44.5479L207.587 44.5605C207.295 44.832 206.91 44.9796 206.512 44.9727C206.113 44.9656 205.732 44.8043 205.45 44.5225C205.168 44.2406 205.007 43.8603 205 43.4619C204.993 43.0633 205.141 42.6774 205.413 42.3857L205.425 42.373L205.438 42.3604L210.811 36.9863L205.438 31.6123L205.425 31.6006L205.413 31.5869C205.141 31.2954 204.993 30.9101 205 30.5117L205.01 30.3633C205.049 30.0195 205.203 29.6969 205.45 29.4502L205.561 29.3506C205.828 29.1307 206.163 29.0062 206.512 29L206.66 29.0049C207.005 29.0322 207.332 29.1754 207.587 29.4131L207.601 29.4248L207.612 29.4375L212.986 34.8105L218.36 29.4375L218.373 29.4248L218.386 29.4131C218.677 29.1413 219.063 28.993 219.462 29L219.61 29.0098Z" fill="#1616E6" stroke="#1616E6" stroke-width="2"/>
</svg>
