<svg width="258" height="47" viewBox="0 0 258 47" fill="none" xmlns="http://www.w3.org/2000/svg">
<line x1="209.401" y1="16.4142" x2="182.414" y2="43.4005" stroke="#1616E6" stroke-width="4"/>
<line x1="182.414" y1="14.9128" x2="211.087" y2="43.5858" stroke="#1616E6" stroke-width="4"/>
<path d="M0 3.10002H9.57421L22.3961 34.3955H22.9022L35.7241 3.10002H45.2983V46.2894H37.7907V16.6178H37.3901L25.4539 46.1629H19.8444L7.90822 16.5545H7.50754V46.2894H0V3.10002Z" fill="#0D0D0E"/>
<path d="M56.8632 46.9432C54.8106 46.9432 52.9619 46.5776 51.3169 45.8466C49.6861 45.1014 48.3927 44.0048 47.4366 42.5568C46.4947 41.1087 46.0237 39.3232 46.0237 37.2003C46.0237 35.3726 46.3611 33.8612 47.036 32.6662C47.7108 31.4712 48.6317 30.5152 49.7986 29.7982C50.9655 29.0812 52.28 28.5399 53.7421 28.1743C55.2183 27.7948 56.7437 27.5206 58.3184 27.3519C60.2163 27.1551 61.7558 26.9793 62.9368 26.8247C64.1177 26.656 64.9753 26.4029 65.5096 26.0655C66.0579 25.714 66.332 25.1727 66.332 24.4417V24.3151C66.332 22.7265 65.861 21.4963 64.9191 20.6246C63.9771 19.753 62.6204 19.3171 60.849 19.3171C58.9791 19.3171 57.4959 19.7249 56.3993 20.5403C55.3168 21.3557 54.5857 22.3187 54.2061 23.4294L47.0781 22.4172C47.6405 20.4489 48.5684 18.804 49.8618 17.4824C51.1553 16.1468 52.7369 15.1486 54.6068 14.4879C56.4766 13.813 58.5433 13.4756 60.8068 13.4756C62.3674 13.4756 63.9209 13.6584 65.4674 14.0239C67.0139 14.3894 68.4268 14.994 69.7062 15.8375C70.9856 16.667 72.0119 17.7988 72.7851 19.2328C73.5724 20.6668 73.9661 22.4593 73.9661 24.6104V46.2894H66.6273V41.8397H66.3742C65.9103 42.7395 65.2565 43.5831 64.413 44.3704C63.5835 45.1436 62.5361 45.7693 61.2708 46.2473C60.0195 46.7112 58.5503 46.9432 56.8632 46.9432ZM58.8456 41.3336C60.378 41.3336 61.7066 41.0313 62.8313 40.4268C63.956 39.8082 64.8207 38.9928 65.4252 37.9805C66.0438 36.9683 66.3531 35.8646 66.3531 34.6696V30.8526C66.1141 31.0494 65.7064 31.2322 65.13 31.4009C64.5676 31.5696 63.935 31.7172 63.232 31.8438C62.529 31.9703 61.8331 32.0828 61.1442 32.1812C60.4553 32.2796 59.8578 32.3639 59.3517 32.4342C58.2129 32.5889 57.1936 32.8419 56.2939 33.1934C55.3941 33.5449 54.6841 34.037 54.1639 34.6696C53.6437 35.2882 53.3836 36.0896 53.3836 37.0737C53.3836 38.4796 53.8968 39.5411 54.9231 40.2581C55.9494 40.9751 57.2569 41.3336 58.8456 41.3336Z" fill="#0D0D0E"/>
<path d="M83.3379 27.3097V46.2894H75.7038V13.8974H83.0004V19.4015H83.38C84.1252 17.5879 85.3131 16.1468 86.944 15.0783C88.5889 14.0098 90.6204 13.4756 93.0386 13.4756C95.274 13.4756 97.2212 13.9536 98.8801 14.9096C100.553 15.8656 101.847 17.2505 102.76 19.0641C103.688 20.8777 104.145 23.0779 104.131 25.6648V46.2894H96.4971V26.8458C96.4971 24.6807 95.9348 22.9866 94.81 21.7634C93.6994 20.5403 92.1599 19.9287 90.1916 19.9287C88.856 19.9287 87.668 20.2239 86.6277 20.8144C85.6014 21.3909 84.793 22.2274 84.2025 23.324C83.6261 24.4206 83.3379 25.7492 83.3379 27.3097Z" fill="#0D0D0E"/>
<path d="M117.974 46.8588C115.429 46.8588 113.151 46.2051 111.141 44.8976C109.131 43.5901 107.542 41.6921 106.375 39.2037C105.208 36.7152 104.625 33.6925 104.625 30.1356C104.625 26.5365 105.215 23.4997 106.396 21.0253C107.591 18.5369 109.201 16.66 111.225 15.3947C113.25 14.1153 115.506 13.4756 117.995 13.4756C119.893 13.4756 121.453 13.799 122.676 14.4457C123.9 15.0783 124.87 15.8446 125.587 16.7443C126.304 17.6301 126.859 18.4666 127.253 19.2539H127.569V3.10002H135.224V46.2894H127.717V41.186H127.253C126.859 41.9733 126.29 42.8098 125.545 43.6955C124.799 44.5672 123.815 45.3123 122.592 45.9309C121.369 46.5495 119.83 46.8588 117.974 46.8588ZM120.104 40.5955C121.72 40.5955 123.098 40.1597 124.237 39.288C125.376 38.4023 126.24 37.1721 126.831 35.5975C127.421 34.0229 127.717 32.1882 127.717 30.0934C127.717 27.9986 127.421 26.178 126.831 24.6315C126.255 23.085 125.397 21.8829 124.258 21.0253C123.133 20.1677 121.749 19.7389 120.104 19.7389C118.403 19.7389 116.983 20.1818 115.844 21.0675C114.705 21.9532 113.847 23.1764 113.271 24.7369C112.695 26.2975 112.406 28.083 112.406 30.0934C112.406 32.1179 112.695 33.9245 113.271 35.5132C113.861 37.0878 114.726 38.332 115.865 39.2458C117.018 40.1456 118.431 40.5955 120.104 40.5955Z" fill="#0D0D0E"/>
<path d="M146.742 46.9432C144.689 46.9432 142.84 46.5776 141.195 45.8466C139.565 45.1014 138.271 44.0048 137.315 42.5568C136.373 41.1087 135.902 39.3232 135.902 37.2003C135.902 35.3726 136.24 33.8612 136.914 32.6662C137.589 31.4712 138.51 30.5152 139.677 29.7982C140.844 29.0812 142.158 28.5399 143.621 28.1743C145.097 27.7948 146.622 27.5206 148.197 27.3519C150.095 27.1551 151.634 26.9793 152.815 26.8247C153.996 26.656 154.854 26.4029 155.388 26.0655C155.936 25.714 156.21 25.1727 156.21 24.4417V24.3151C156.21 22.7265 155.74 21.4963 154.798 20.6246C153.856 19.753 152.499 19.3171 150.727 19.3171C148.858 19.3171 147.374 19.7249 146.278 20.5403C145.195 21.3557 144.464 22.3187 144.085 23.4294L136.957 22.4172C137.519 20.4489 138.447 18.804 139.74 17.4824C141.034 16.1468 142.615 15.1486 144.485 14.4879C146.355 13.813 148.422 13.4756 150.685 13.4756C152.246 13.4756 153.799 13.6584 155.346 14.0239C156.892 14.3894 158.305 14.994 159.585 15.8375C160.864 16.667 161.89 17.7988 162.664 19.2328C163.451 20.6668 163.845 22.4593 163.845 24.6104V46.2894H156.506V41.8397H156.253C155.789 42.7395 155.135 43.5831 154.291 44.3704C153.462 45.1436 152.415 45.7693 151.149 46.2473C149.898 46.7112 148.429 46.9432 146.742 46.9432ZM148.724 41.3336C150.256 41.3336 151.585 41.0313 152.71 40.4268C153.835 39.8082 154.699 38.9928 155.304 37.9805C155.922 36.9683 156.232 35.8646 156.232 34.6696V30.8526C155.993 31.0494 155.585 31.2322 155.008 31.4009C154.446 31.5696 153.813 31.7172 153.11 31.8438C152.408 31.9703 151.712 32.0828 151.023 32.1812C150.334 32.2796 149.736 32.3639 149.23 32.4342C148.091 32.5889 147.072 32.8419 146.172 33.1934C145.273 33.5449 144.563 34.037 144.042 34.6696C143.522 35.2882 143.262 36.0896 143.262 37.0737C143.262 38.4796 143.775 39.5411 144.802 40.2581C145.828 40.9751 147.135 41.3336 148.724 41.3336ZM148.091 9.63748L152.815 0H160.281L153.806 9.63748H148.091Z" fill="#0D0D0E"/>
<path d="M181.757 13.8974V19.8022H163.136V13.8974H181.757ZM167.733 6.13678H175.367V36.5465C175.367 37.5728 175.522 38.3601 175.831 38.9084C176.155 39.4427 176.576 39.8082 177.097 40.005C177.617 40.2019 178.193 40.3003 178.826 40.3003C179.304 40.3003 179.74 40.2651 180.133 40.1948C180.541 40.1245 180.85 40.0613 181.061 40.005L182.348 45.9731C181.94 46.1137 181.357 46.2683 180.597 46.4371C179.852 46.6058 178.938 46.7042 177.856 46.7323C175.944 46.7885 174.222 46.5003 172.689 45.8677C171.157 45.2209 169.941 44.2228 169.041 42.8731C168.155 41.5234 167.719 39.8363 167.733 37.8118V6.13678Z" fill="#0D0D0E"/>
<path d="M195.985 46.9221C192.821 46.9221 190.08 46.2262 187.76 44.8343C185.44 43.4425 183.641 41.4953 182.361 38.9928C181.096 36.4903 180.463 33.566 180.463 30.2199C180.463 26.8739 181.096 23.9426 182.361 21.426C183.641 18.9094 185.44 16.9552 187.76 15.5634C190.08 14.1715 192.821 13.4756 195.985 13.4756C199.148 13.4756 201.889 14.1715 204.209 15.5634C206.529 16.9552 208.321 18.9094 209.587 21.426C210.866 23.9426 211.506 26.8739 211.506 30.2199C211.506 33.566 210.866 36.4903 209.587 38.9928C208.321 41.4953 206.529 43.4425 204.209 44.8343C201.889 46.2262 199.148 46.9221 195.985 46.9221ZM196.027 40.8064C197.742 40.8064 199.176 40.3354 200.329 39.3935C201.482 38.4375 202.339 37.1581 202.902 35.5553C203.478 33.9526 203.766 32.1671 203.766 30.1988C203.766 28.2165 203.478 26.424 202.902 24.8213C202.339 23.2045 201.482 21.9181 200.329 20.962C199.176 20.006 197.742 19.528 196.027 19.528C194.269 19.528 192.807 20.006 191.64 20.962C190.488 21.9181 189.623 23.2045 189.046 24.8213C188.484 26.424 188.203 28.2165 188.203 30.1988C188.203 32.1671 188.484 33.9526 189.046 35.5553C189.623 37.1581 190.488 38.4375 191.64 39.3935C192.807 40.3354 194.269 40.8064 196.027 40.8064Z" fill="#0D0D0E"/>
<path d="M228.222 13.8974V19.8022H209.6V13.8974H228.222ZM214.198 6.13678H221.832V36.5465C221.832 37.5728 221.986 38.3601 222.296 38.9084C222.619 39.4427 223.041 39.8082 223.561 40.005C224.081 40.2019 224.658 40.3003 225.29 40.3003C225.768 40.3003 226.204 40.2651 226.598 40.1948C227.006 40.1245 227.315 40.0613 227.526 40.005L228.812 45.9731C228.404 46.1137 227.821 46.2683 227.062 46.4371C226.317 46.6058 225.403 46.7042 224.32 46.7323C222.408 46.7885 220.686 46.5003 219.154 45.8677C217.621 45.2209 216.405 44.2228 215.505 42.8731C214.62 41.5234 214.184 39.8363 214.198 37.8118V6.13678Z" fill="#0D0D0E"/>
<path d="M242.449 46.9221C239.286 46.9221 236.544 46.2262 234.225 44.8343C231.905 43.4425 230.105 41.4953 228.826 38.9928C227.561 36.4903 226.928 33.566 226.928 30.2199C226.928 26.8739 227.561 23.9426 228.826 21.426C230.105 18.9094 231.905 16.9552 234.225 15.5634C236.544 14.1715 239.286 13.4756 242.449 13.4756C245.612 13.4756 248.354 14.1715 250.674 15.5634C252.993 16.9552 254.786 18.9094 256.051 21.426C257.331 23.9426 257.97 26.8739 257.97 30.2199C257.97 33.566 257.331 36.4903 256.051 38.9928C254.786 41.4953 252.993 43.4425 250.674 44.8343C248.354 46.2262 245.612 46.9221 242.449 46.9221ZM242.491 40.8064C244.206 40.8064 245.64 40.3354 246.793 39.3935C247.946 38.4375 248.804 37.1581 249.366 35.5553C249.943 33.9526 250.231 32.1671 250.231 30.1988C250.231 28.2165 249.943 26.424 249.366 24.8213C248.804 23.2045 247.946 21.9181 246.793 20.962C245.64 20.006 244.206 19.528 242.491 19.528C240.734 19.528 239.272 20.006 238.105 20.962C236.952 21.9181 236.087 23.2045 235.511 24.8213C234.949 26.424 234.667 28.2165 234.667 30.1988C234.667 32.1671 234.949 33.9526 235.511 35.5553C236.087 37.1581 236.952 38.4375 238.105 39.3935C239.272 40.3354 240.734 40.8064 242.491 40.8064ZM239.518 9.63748L244.242 0H251.707L245.233 9.63748H239.518Z" fill="#0D0D0E"/>
</svg>
