<svg width="272" height="67" viewBox="0 0 272 67" fill="none" xmlns="http://www.w3.org/2000/svg">
<path d="M2.64 53V19.976H12.624L20.88 36.008L28.944 19.976H38.928V53H28.944V35.72L22.848 47.24H18.768L12.624 35.72V53H2.64ZM37.4501 53L46.5701 19.976H62.1221L71.6741 53H59.9141L58.6661 46.664H50.1221L48.7301 53H37.4501ZM51.1301 40.76H57.5141L54.3941 26.312L51.1301 40.76ZM69.9375 53V19.976H79.5375L92.4975 37.496V19.976H101.33V53H91.7295L78.7695 36.2V53H69.9375ZM102.274 53V19.976H113.746C118.546 19.976 122.45 20.664 125.458 22.04C128.498 23.416 130.722 25.32 132.13 27.752C133.57 30.184 134.29 33.016 134.29 36.248C134.29 41.528 132.546 45.64 129.058 48.584C125.602 51.528 120.338 53 113.266 53H102.274ZM112.882 44.6H115.954C118.514 44.6 120.418 43.832 121.666 42.296C122.914 40.728 123.538 38.68 123.538 36.152C123.538 33.816 122.93 31.944 121.714 30.536C120.53 29.096 118.61 28.376 115.954 28.376H112.882V44.6ZM130.85 53L139.97 19.976H155.522L165.074 53H153.314L152.066 46.664H143.522L142.13 53H130.85ZM144.53 40.76H150.914L147.794 26.312L144.53 40.76ZM144.818 17.816L141.89 12.68L155.954 2.84L160.802 11.432L144.818 17.816Z" fill="#1616E6"/>
<path d="M166.13 53V27.56H158.69V19.976H184.754V27.56H177.314V53H166.13ZM198.773 53.768C195.285 53.768 192.213 53.032 189.557 51.56C186.901 50.088 184.821 48.056 183.317 45.464C181.845 42.872 181.109 39.896 181.109 36.536C181.109 33.144 181.845 30.152 183.317 27.56C184.821 24.968 186.901 22.936 189.557 21.464C192.213 19.992 195.285 19.256 198.773 19.256C202.261 19.256 205.333 19.992 207.989 21.464C210.645 22.904 212.709 24.92 214.181 27.512C215.685 30.104 216.437 33.112 216.437 36.536C216.437 39.896 215.685 42.872 214.181 45.464C212.709 48.056 210.645 50.088 207.989 51.56C205.333 53.032 202.261 53.768 198.773 53.768ZM198.773 45.032C200.789 45.032 202.437 44.248 203.717 42.68C205.029 41.112 205.685 39.048 205.685 36.488C205.685 34.76 205.381 33.24 204.773 31.928C204.197 30.616 203.381 29.592 202.325 28.856C201.301 28.088 200.101 27.704 198.725 27.704C196.709 27.704 195.061 28.52 193.781 30.152C192.501 31.752 191.861 33.864 191.861 36.488C191.861 39.048 192.501 41.112 193.781 42.68C195.061 44.248 196.725 45.032 198.773 45.032ZM220.256 53V27.56H212.816V19.976H238.88V27.56H231.44V53H220.256ZM252.899 53.768C249.411 53.768 246.339 53.032 243.683 51.56C241.027 50.088 238.947 48.056 237.443 45.464C235.971 42.872 235.235 39.896 235.235 36.536C235.235 33.144 235.971 30.152 237.443 27.56C238.947 24.968 241.027 22.936 243.683 21.464C246.339 19.992 249.411 19.256 252.899 19.256C256.387 19.256 259.459 19.992 262.115 21.464C264.771 22.904 266.835 24.92 268.307 27.512C269.811 30.104 270.563 33.112 270.563 36.536C270.563 39.896 269.811 42.872 268.307 45.464C266.835 48.056 264.771 50.088 262.115 51.56C259.459 53.032 256.387 53.768 252.899 53.768ZM252.899 45.032C254.915 45.032 256.563 44.248 257.843 42.68C259.155 41.112 259.811 39.048 259.811 36.488C259.811 34.76 259.507 33.24 258.899 31.928C258.323 30.616 257.507 29.592 256.451 28.856C255.427 28.088 254.227 27.704 252.851 27.704C250.835 27.704 249.187 28.52 247.907 30.152C246.627 31.752 245.987 33.864 245.987 36.488C245.987 39.048 246.627 41.112 247.907 42.68C249.187 44.248 250.851 45.032 252.899 45.032ZM249.971 17.816L247.043 12.68L261.107 2.84L265.955 11.432L249.971 17.816Z" fill="#0D0D0E"/>
<path d="M205.61 29.0098C205.905 29.0436 206.183 29.1623 206.412 29.3506L206.522 29.4502L206.622 29.5605C206.811 29.7896 206.929 30.0684 206.963 30.3633L206.973 30.5117L206.969 30.6602C206.941 31.0048 206.798 31.3318 206.561 31.5869L206.548 31.6006L201.162 36.9863L206.536 42.3604H206.535C206.638 42.4603 206.726 42.5734 206.797 42.6973L206.867 42.835L206.923 42.9795C206.955 43.0772 206.977 43.1781 206.989 43.2803L207 43.4346L206.995 43.5889C206.982 43.7427 206.946 43.8944 206.888 44.0381C206.81 44.2295 206.696 44.4038 206.55 44.5498C206.404 44.6958 206.229 44.8103 206.038 44.8877C205.847 44.9651 205.641 45.0036 205.435 45C205.228 44.9964 205.024 44.9513 204.835 44.8672C204.657 44.7878 204.496 44.6746 204.36 44.5352L198.986 39.1621L193.601 44.5479L193.587 44.5605C193.295 44.832 192.91 44.9796 192.512 44.9727C192.113 44.9656 191.732 44.8043 191.45 44.5225C191.168 44.2406 191.007 43.8603 191 43.4619C190.993 43.0633 191.141 42.6774 191.413 42.3857L191.425 42.373L191.438 42.3604L196.811 36.9863L191.438 31.6123L191.425 31.6006L191.413 31.5869C191.141 31.2954 190.993 30.9101 191 30.5117L191.01 30.3633C191.049 30.0195 191.203 29.6969 191.45 29.4502L191.561 29.3506C191.828 29.1307 192.163 29.0062 192.512 29L192.66 29.0049C193.005 29.0322 193.332 29.1754 193.587 29.4131L193.601 29.4248L193.612 29.4375L198.986 34.8105L204.36 29.4375L204.373 29.4248L204.386 29.4131C204.677 29.1413 205.063 28.993 205.462 29L205.61 29.0098Z" fill="#1616E6" stroke="#1616E6" stroke-width="2"/>
</svg>
